<svg width="30" height="30" viewBox="0 0 30 30" fill="none" xmlns="http://www.w3.org/2000/svg">
<circle cx="15" cy="15" r="15" fill="#5855D6"/>
<path d="M20.3025 9.69752C19.0719 8.45889 17.4477 7.68843 15.7099 7.51895C13.9722 7.34947 12.2297 7.7916 10.783 8.76912C9.33628 9.74663 8.27594 11.1983 7.78479 12.8738C7.29364 14.5493 7.40245 16.3436 8.09247 17.9475C8.16438 18.0966 8.18798 18.2644 8.15997 18.4275L7.49997 21.6C7.47454 21.7216 7.47973 21.8477 7.51508 21.9668C7.55042 22.086 7.61482 22.1944 7.70247 22.2825C7.77432 22.3538 7.85987 22.4099 7.95397 22.4473C8.04806 22.4847 8.14875 22.5026 8.24997 22.5H8.39997L11.61 21.855C11.7731 21.8354 11.9386 21.8587 12.09 21.9225C13.6938 22.6125 15.4882 22.7213 17.1637 22.2302C18.8392 21.739 20.2909 20.6787 21.2684 19.232C22.2459 17.7853 22.688 16.0428 22.5185 14.3051C22.3491 12.5673 21.5786 10.9431 20.34 9.71252L20.3025 9.69752ZM12 15.75C11.8516 15.75 11.7066 15.706 11.5833 15.6236C11.46 15.5412 11.3638 15.4241 11.3071 15.287C11.2503 15.15 11.2354 14.9992 11.2644 14.8537C11.2933 14.7082 11.3647 14.5746 11.4696 14.4697C11.5745 14.3648 11.7082 14.2934 11.8536 14.2644C11.9991 14.2355 12.1499 14.2503 12.287 14.3071C12.424 14.3639 12.5412 14.46 12.6236 14.5833C12.706 14.7067 12.75 14.8517 12.75 15C12.75 15.1989 12.6709 15.3897 12.5303 15.5303C12.3896 15.671 12.1989 15.75 12 15.75V15.75ZM15 15.75C14.8516 15.75 14.7066 15.706 14.5833 15.6236C14.46 15.5412 14.3638 15.4241 14.3071 15.287C14.2503 15.15 14.2354 14.9992 14.2644 14.8537C14.2933 14.7082 14.3647 14.5746 14.4696 14.4697C14.5745 14.3648 14.7082 14.2934 14.8536 14.2644C14.9991 14.2355 15.1499 14.2503 15.287 14.3071C15.424 14.3639 15.5412 14.46 15.6236 14.5833C15.706 14.7067 15.75 14.8517 15.75 15C15.75 15.1989 15.6709 15.3897 15.5303 15.5303C15.3896 15.671 15.1989 15.75 15 15.75ZM18 15.75C17.8516 15.75 17.7066 15.706 17.5833 15.6236C17.46 15.5412 17.3638 15.4241 17.3071 15.287C17.2503 15.15 17.2354 14.9992 17.2644 14.8537C17.2933 14.7082 17.3647 14.5746 17.4696 14.4697C17.5745 14.3648 17.7082 14.2934 17.8536 14.2644C17.9991 14.2355 18.1499 14.2503 18.287 14.3071C18.424 14.3639 18.5412 14.46 18.6236 14.5833C18.706 14.7067 18.75 14.8517 18.75 15C18.75 15.1989 18.6709 15.3897 18.5303 15.5303C18.3896 15.671 18.1989 15.75 18 15.75Z" fill="white"/>
<circle cx="21.5" cy="9.5" r="3.5" fill="#6FCF97"/>
</svg>
